# xmcd
#
# Track frame offsets: 
#        150
#        14255
#        30192
#        46067
#        58827
#        71552
#        88975
#        104722
#        121105
#        138820
#
# Disc length: 2079 seconds
#
# Revision: 2
# Processed by: cddbd v1.4PL0 Copyright (c) Steve Scherf et al.
# Submitted via: ExactAudioCopy v0.90b3
#
DISCID=7f081d0a
DTITLE=Suzy Bogguss - Country Classics
DYEAR=1900
DGENRE=Country
TTITLE0=Under The Gun
TTITLE1=My Side Of The Story
TTITLE2=Moment Of Truth
TTITLE3=All Things Made New Again
TTITLE4=Wild Horses
TTITLE5=Fear Of Flying
TTITLE6=As If I Didn't Know
TTITLE7=Blue Days
TTITLE8=Burning Down
TTITLE9=Friend Of Mine
EXTD=
EXTT0=
EXTT1=
EXTT2=
EXTT3=
EXTT4=
EXTT5=
EXTT6=
EXTT7=
EXTT8=
EXTT9=
PLAYORDER=
